<?xml version="1.0" encoding="UTF-8"?><svg id="Layer_1" xmlns="http://www.w3.org/2000/svg" viewBox="0 0 300 300"><defs><style>.cls-1{fill:#e9519d;}.cls-2{fill:#2869ac;}.cls-3{fill:#dee464;}</style></defs><rect class="cls-1" x="220.06" y="219.48" width="42.86" height="42.86" transform="translate(-99.62 241.32) rotate(-45)"/><rect class="cls-2" x="159.46" y="158.88" width="42.86" height="42.86" transform="translate(-74.52 180.72) rotate(-45)"/><rect class="cls-1" x="38.24" y="219.48" width="42.86" height="42.86" transform="translate(-152.87 112.75) rotate(-45)"/><rect class="cls-2" x="98.84" y="158.88" width="42.86" height="42.86" transform="translate(-92.27 137.86) rotate(-45)"/><rect class="cls-3" x="129.15" y="128.57" width="42.86" height="42.86" transform="translate(-61.96 150.41) rotate(-45)"/><rect class="cls-2" x="159.46" y="98.26" width="42.86" height="42.86" transform="translate(-31.66 162.96) rotate(-45)"/><rect class="cls-1" x="220.06" y="37.66" width="42.86" height="42.86" transform="translate(28.95 188.07) rotate(-45)"/><rect class="cls-2" x="98.84" y="98.26" width="42.86" height="42.86" transform="translate(-49.41 120.1) rotate(-45)"/><rect class="cls-1" x="38.24" y="37.66" width="42.86" height="42.86" transform="translate(-24.3 59.5) rotate(-45)"/></svg>