<svg id="Layer_1" data-name="Layer 1" xmlns="http://www.w3.org/2000/svg" xmlns:xlink="http://www.w3.org/1999/xlink" viewBox="0 0 1920 395.16"><defs><style>.cls-1,.cls-3{fill:none;stroke:#fff;stroke-miterlimit:10;}.cls-2{clip-path:url(#clip-path);}.cls-3{stroke-width:18.68px;}</style><clipPath id="clip-path"><rect class="cls-1" x="40.77" y="31.15" width="1838.46" height="332.87"/></clipPath></defs><g class="cls-2"><path class="cls-3" d="M1879.23,314.73a125.39,125.39,0,0,1,0-250.77M1553.14,47.38a50.07,50.07,0,1,1,0,100.13,50.08,50.08,0,0,0,0,100.15,50.07,50.07,0,1,1,0,100.13M1290,38.33c68.06,56.53,60.6,109.35,0,159.56-73.61,49.8-55.1,103.84,0,159.56M1082.44,197.58A115.12,115.12,0,1,1,967.33,82.47,115.12,115.12,0,0,1,1082.44,197.58ZM704,38,598.68,143.39,706.27,251,600.1,357.14M304.72,276.81a154.44,154.44,0,0,1-218.42,0,123.55,123.55,0,0,1,0-174.74,98.85,98.85,0,0,1,139.79,0,79.09,79.09,0,0,1,0,111.84,63.28,63.28,0,0,1-89.47,0,50.61,50.61,0,0,1,0-71.57,40.47,40.47,0,0,1,57.26,0,32.38,32.38,0,0,1,0,45.8,25.92,25.92,0,0,1-36.65,0,20.74,20.74,0,0,1,0-29.32m274.36-95V331.31"/></g><rect class="cls-1" x="40.77" y="31.15" width="1838.46" height="332.87"/></svg>